HIERARCHY
ROOT Hips
{
	OFFSET 0.00000 0.00000 0.00000
	CHANNELS 6 Xposition Yposition Zposition Zrotation Yrotation Xrotation 
	JOINT RightUpLegDummy
	{
		OFFSET 0 0 0
		CHANNELS 3 Zrotation Yrotation Xrotation
		JOINT RightUpLeg
		{
			OFFSET -3.52197 -3.41223 0.04002
			CHANNELS 3 Zrotation Yrotation Xrotation
			JOINT RightLeg
			{
				OFFSET 0.00006 -17.42390 1.60435
				CHANNELS 3 Zrotation Yrotation Xrotation
				JOINT RightFoot
				{
					OFFSET 0.06153 -16.50078 -1.63901
					CHANNELS 3 Zrotation Yrotation Xrotation
					JOINT RightToes
					{
						OFFSET 0.00298 -1.73825 3.34613
						CHANNELS 3 Zrotation Yrotation Xrotation
						End Site
						{
							OFFSET 0.00480 -0.05416 3.85043
						}
					}
				}
			}
		}
	}
	JOINT SpineDummy
	{
		OFFSET 0 0 0
		CHANNELS 3 Zrotation Yrotation Xrotation
		JOINT Spine
		{
			OFFSET 0.00000 4.68130 0.00000
			CHANNELS 3 Zrotation Yrotation Xrotation
			JOINT Spine1
			{
				OFFSET -0.00000 10.10138 0.05002
				CHANNELS 3 Zrotation Yrotation Xrotation
				JOINT HEadDummy
				{
					OFFSET 0 0 0
					CHANNELS 3 Zrotation Yrotation Xrotation
					JOINT Head
					{
						OFFSET -0.00000 3.43865 0.00438
						CHANNELS 3 Zrotation Yrotation Xrotation
						End Site
						{
							OFFSET -0.11417 5.02924 0.98962
						}
					}
				}
				JOINT LeftShoulder1Dummy
				{
					OFFSET 0 0 0
					CHANNELS 3 Zrotation Yrotation Xrotation
					JOINT LeftShoulder1
					{
						OFFSET 3.53937 -0.14262 -0.08662
						CHANNELS 3 Zrotation Yrotation Xrotation
						JOINT LeftArm
						{
							OFFSET 4.04833 -0.00133 0.12681
							CHANNELS 3 Zrotation Yrotation Xrotation
							JOINT LeftForeArm
							{
								OFFSET 10.33880 -0.01036 -0.55515
								CHANNELS 3 Zrotation Yrotation Xrotation
								JOINT LeftHand
								{
									OFFSET 8.69677 0.07543 0.40060
									CHANNELS 3 Zrotation Yrotation Xrotation
									End Site
									{
										OFFSET 5.28377 -0.21905 0.59205
									}
								}
							}
						}
					}
				}
				JOINT RightShoulderDummy
				{
					OFFSET 0 0 0
					CHANNELS 3 Zrotation Yrotation Xrotation
					JOINT RightShoulder
					{
						OFFSET -3.53937 -0.14262 -0.08660
						CHANNELS 3 Zrotation Yrotation Xrotation
						JOINT RightArm
						{
							OFFSET -4.04833 -0.00133 0.12683
							CHANNELS 3 Zrotation Yrotation Xrotation
							JOINT RightForeArm
							{
								OFFSET -10.37987 -0.01039 -0.55511
								CHANNELS 3 Zrotation Yrotation Xrotation
								JOINT RightHand
								{
									OFFSET -8.67398 0.07538 0.40058
									CHANNELS 3 Zrotation Yrotation Xrotation
									End Site
									{
										OFFSET -5.24810 -0.21916 0.59204
									}
								}
							}
						}
					}
				}
			}
		}
	}
	JOINT LeftUpLegDummy
	{
		OFFSET 0 0 0
		CHANNELS 3 Zrotation Yrotation Xrotation
		JOINT LeftUpLeg
		{
			OFFSET 3.52197 -3.41223 0.04002
			CHANNELS 3 Zrotation Yrotation Xrotation
			JOINT LeftLeg
			{
				OFFSET -0.00012 -17.42399 1.60337
				CHANNELS 3 Zrotation Yrotation Xrotation
				JOINT LeftFoot
				{
					OFFSET -0.09972 -16.50070 -1.63802
					CHANNELS 3 Zrotation Yrotation Xrotation
					JOINT LeftToes
					{
						OFFSET -0.01575 -1.73823 3.34611
						CHANNELS 3 Zrotation Yrotation Xrotation
						End Site
						{
							OFFSET 0.03150 -0.01868 3.85031
						}
					}
				}
			}
		}
	}
}
MOTION
Frames: 6
Frame Time: 0.033333
-22.9553 37.9497 -33.6423 174.3650 -35.0212 177.4590 0.0000 0.0000 0.0000 -5.6864 -5.8894 0.2809 1.8687 1.1972 55.8439 13.8973 -2.7495 11.3039 0.0000 -0.0000 0.0000 0.0000 0.0000 0.0000 -4.3290 1.8760 14.8067 1.8655 1.4760 -5.7682 -0.0000 0.0000 -0.0000 5.7566 -0.6121 -6.3300 -0.0000 0.0000 -0.0000 -33.8258 -2.5585 2.4161 -43.3354 -10.3955 -19.1514 -10.5057 5.2520 43.5438 12.3556 -4.1893 -0.9861 -0.0000 0.0000 -0.0000 34.8331 5.2141 3.5616 39.2549 -2.0329 -19.0232 10.2539 0.6610 20.7449 -11.8685 1.9960 -0.7388 0.0000 0.0000 0.0000 -6.2427 0.3143 -16.3304 3.1855 9.3163 24.3325 3.2758 -0.2123 -3.2233 0.0000 0.0000 -0.0000
-23.7266 38.0404 -34.5898 174.8510 -34.3840 176.4330 0.0000 0.0000 0.0000 -4.8028 -4.7020 -4.3604 -1.9341 -0.6968 60.5439 9.4226 -1.6826 9.0223 0.0000 -0.0000 0.0000 0.0000 0.0000 0.0000 -4.1129 1.6231 15.8364 2.0417 1.1634 -5.8480 -0.0000 0.0000 -0.0000 5.2526 0.1768 -7.2294 -0.0000 0.0000 -0.0000 -34.2336 -2.5684 2.4451 -42.9190 -10.8982 -18.1813 -11.0452 5.2619 42.9018 12.8833 -4.5052 -1.0631 -0.0000 0.0000 -0.0000 35.2210 5.2890 3.6269 38.8432 -1.7064 -17.8432 10.6407 1.3554 21.6052 -11.6906 2.2434 -0.7509 0.0000 0.0000 0.0000 -6.1501 0.1877 -14.1574 4.1780 10.0421 25.8341 4.9162 -0.2192 -5.5653 0.0000 0.0000 -0.0000
-24.5113 38.2156 -35.6216 175.5640 -34.0466 175.6930 0.0000 0.0000 0.0000 -3.6014 -3.8685 -8.7444 -5.4757 -2.1586 61.4868 5.1189 -0.6650 3.9247 0.0000 -0.0000 0.0000 0.0000 0.0000 0.0000 -3.8881 1.1956 16.0069 2.4245 0.6499 -5.5489 -0.0000 0.0000 -0.0000 4.9221 0.9765 -7.8861 -0.0000 0.0000 -0.0000 -34.3613 -2.6098 2.4696 -42.7414 -11.6808 -17.7333 -11.2532 5.2811 42.0330 13.8485 -4.6700 -1.1644 -0.0000 0.0000 -0.0000 35.5137 5.3432 3.6755 38.7105 -1.0972 -17.0628 10.7777 2.2051 22.7246 -12.2599 2.4929 -0.8130 0.0000 0.0000 0.0000 -5.6955 0.3402 -11.5611 4.5959 10.2753 26.0414 4.2797 -0.0782 -7.9937 0.0000 0.0000 -0.0000
-25.2802 38.3595 -36.6665 176.4440 -33.8509 174.9700 0.0000 0.0000 0.0000 -2.3712 -3.1072 -12.4762 -7.7192 -3.4765 59.1882 3.0890 -0.3050 0.1558 0.0000 -0.0000 0.0000 0.0000 0.0000 0.0000 -3.4753 0.7364 16.0663 2.7771 0.1250 -5.3969 -0.0000 0.0000 -0.0000 4.6863 1.5780 -7.8508 -0.0000 0.0000 -0.0000 -34.0654 -2.6333 2.4607 -42.9123 -12.5952 -17.4665 -11.3018 5.3026 41.1300 14.5733 -4.5554 -1.2145 -0.0000 0.0000 -0.0000 35.4196 5.3262 3.6600 39.1675 -0.7139 -16.7729 10.7178 3.5333 22.8275 -12.6424 2.6359 -0.8536 0.0000 0.0000 0.0000 -5.0153 0.6444 -8.9489 4.5636 10.0704 25.9767 3.8440 0.0229 -10.1533 0.0000 0.0000 -0.0000
-26.0429 38.4911 -37.7206 177.4830 -33.7531 174.1280 0.0000 0.0000 0.0000 -1.1377 -2.5847 -15.3506 -8.9447 -5.0277 54.3682 2.1160 -0.1839 -1.7332 0.0000 -0.0000 0.0000 0.0000 0.0000 0.0000 -2.7858 0.2840 16.2678 3.0438 -0.3511 -5.5061 -0.0000 0.0000 -0.0000 4.3568 1.9400 -7.2357 -0.0000 0.0000 -0.0000 -33.7645 -2.6429 2.4459 -42.9652 -13.5133 -17.1258 -11.3799 5.3161 40.5256 14.6041 -4.3521 -1.1932 -0.0000 0.0000 -0.0000 35.1909 5.2806 3.6207 39.7533 -0.6472 -16.3237 10.7068 5.2635 21.4233 -12.4337 2.7228 -0.8478 0.0000 0.0000 0.0000 -4.2547 0.8570 -6.2329 4.6344 9.9497 25.6863 4.2853 0.0957 -11.9718 0.0000 0.0000 -0.0000
-26.7902 38.6251 -38.7803 178.5320 -34.0000 173.4550 0.0000 0.0000 0.0000 0.0032 -2.6697 -17.4823 -9.4892 -7.0084 47.4238 1.4427 -0.1136 -3.2482 0.0000 -0.0000 0.0000 0.0000 0.0000 0.0000 -2.0570 -0.2339 16.3232 3.3647 -0.8856 -5.6553 -0.0000 0.0000 -0.0000 3.8697 2.1264 -6.6144 -0.0000 0.0000 -0.0000 -33.7550 -2.6919 2.4647 -42.6264 -14.4956 -16.7335 -11.5111 5.3190 40.3343 14.2427 -4.2549 -1.1511 -0.0000 0.0000 -0.0000 35.1487 5.2715 3.6132 40.0686 -0.6645 -14.9474 10.7081 7.0895 18.8722 -12.1124 2.8520 -0.8376 0.0000 0.0000 0.0000 -3.4435 1.1330 -3.5137 4.5940 9.6648 24.8787 4.3654 0.1689 -13.6493 0.0000 0.0000 -0.0000
